<?xml version="1.0" encoding="UTF-8" standalone="no"?>
<svg 
    role="img" 
    xmlns="http://www.w3.org/2000/svg" 
    width="1000mm"
    height="1000mm"
    viewBox="0 0 1000 1000"
    style="max-width:1.6em; height: auto;">
    
    <path 
        id="path" 
        style="opacity:1;vector-effect:none;fill:#000000;fill-opacity:1;"
        d=" M 300 287C 303 287 306 289 309 291C 309 291 500 482 500 482C 500 482 691 291 691 291C 693 289 697 287 700 287C 705 287 710 290 712 295C 714 300 713 305 709 309C 709 309 518 500 518 500C 518 500 709 691 709 691C 712 694 713 699 712 703C 711 708 708 711 703 712C 699 713 694 712 691 709C 691 709 500 518 500 518C 500 518 309 709 309 709C 306 712 301 713 297 712C 292 711 289 708 288 703C 287 699 288 694 291 691C 291 691 482 500 482 500C 482 500 291 309 291 309C 288 305 286 300 288 295C 290 290 295 287 300 287C 300 287 300 287 300 287"
        transform="">
    </path>    
</svg>